inDegrees=yes
name=ik_S53_A12_T02
DataType=double
version=3
OpenSimVersion=4.3-2021-08-27-4bc7ad9
endheader
time	pelvis_tilt	pelvis_list	pelvis_rotation	pelvis_tx	pelvis_ty	pelvis_tz	hip_flexion_r	hip_adduction_r	hip_rotation_r	knee_angle_r	knee_angle_r_beta	ankle_angle_r	subtalar_angle_r	mtp_angle_r	hip_flexion_l	hip_adduction_l	hip_rotation_l	knee_angle_l	knee_angle_l_beta	ankle_angle_l	subtalar_angle_l	mtp_angle_l	lumbar_extension	lumbar_bending	lumbar_rotation	arm_flex_r	arm_add_r	arm_rot_r	elbow_flex_r	pro_sup_r	wrist_flex_r	wrist_dev_r	arm_flex_l	arm_add_l	arm_rot_l	elbow_flex_l	pro_sup_l	wrist_flex_l	wrist_dev_l
4.633333333333322	-1.9198297325742	-1.437268128842502	32.14118244435372	0	0.9399999999999999	0	23.76270272687439	-8.371478829792894	-7.248306660949265	27.4599020041795	0.4792657022479219	0	0	0	23.76270272687439	-8.371478829792894	-7.248306660949265	27.4599020041795	0.4792657022479219	0	0	0	-1.841107411299567	0.2441100263543174	9.391819574100083	18.22739738979199	-9.164062856805486	-2.355754321452819	4.312464923213818	135.357187428158	0	0	54.81808921925739	-45.32254770118862	16.64899982275661	56.34064334554587	49.66003741093287	0	0
4.649999999999989	-1.924088401216468	-1.414611326331948	31.9479411816178	0	0.9399999999999999	0	23.78033295944955	-8.375834410403714	-7.253033914476705	27.47702960114975	0.4795646352080074	0	0	0	23.78033295944955	-8.375834410403714	-7.253033914476705	27.47702960114975	0.4795646352080074	0	0	0	-1.828152640984727	0.255740343820877	9.44196574284336	18.22706355998893	-9.138984422687562	-2.191300326882628	4.29930070018372	135.3470066350621	0	0	57.38656024369028	-46.05190593633354	18.57693427523908	56.33262881166418	48.38825012972375	0	0
4.666666666666655	-1.931247662224661	-1.413671234814993	31.77498733073275	0	0.9399999999999999	0	23.80063252776792	-8.380831844241092	-7.258466969988187	27.49677992150269	0.4799093433264898	0	0	0	23.80063252776792	-8.380831844241092	-7.258466969988187	27.49677992150269	0.4799093433264898	0	0	0	-1.825783495161167	0.2501650089646836	9.651677729643398	18.17055031192263	-9.240759370786392	-2.466742742064952	4.244078708479732	135.5104193600681	0	0	60.0065889965909	-46.14223873480929	20.89481225760164	54.99139091657763	47.29346457673582	0	0
4.683333333333322	-1.971712921757215	-1.424020268417139	31.57900139463723	0	0.9399999999999999	0	23.82366027858912	-8.386506428046328	-7.264635962339185	27.5191290634194	0.4802994094379319	0	0	0	23.82366027858912	-8.386506428046328	-7.264635962339185	27.5191290634194	0.4802994094379319	0	0	0	-1.859221231800307	0.2488525030635731	9.795997918028215	18.19096961693246	-9.34277044206058	-2.466042427222312	4.188296698705715	135.5699298292865	0	0	63.33593147275431	-46.88505280682084	22.94754291591683	55.9797584813201	46.16837730796952	0	0
4.699999999999989	-1.999499487644693	-1.441239738444461	31.40156054429999	0	0.9399999999999999	0	24.04449427624426	-8.426115283538312	-7.313879092979373	27.78465220779327	0.4849336625475042	0	0	0	24.04449427624426	-8.426115283538312	-7.313879092979373	27.78465220779327	0.4849336625475042	0	0	0	-1.889422776716193	0.22835581594051	9.925841906062351	18.24322124426201	-9.383275423125951	-2.360085004193698	4.099424052566262	135.5622220391792	0	0	67.28079548327801	-48.02843645250237	25.01749313884841	59.11346691072624	45.03567841456143	0	0
4.716666666666655	-2.011948154740347	-1.432676057511027	31.19814413889157	0	0.9399999999999999	0	24.06684192216889	-8.431540475456668	-7.319823916388732	27.80631076325854	0.4853116756515991	0	0	0	24.06684192216889	-8.431540475456668	-7.319823916388732	27.80631076325854	0.4853116756515991	0	0	0	-1.888489867943934	0.2253053392257168	10.11765680958903	18.23212184239354	-9.453081640143955	-2.304610642563321	4.017510222592307	135.6228193690391	0	0	70.60482611312364	-48.32943639909426	27.45775966876898	59.84411927090068	43.91253962894928	0	0
4.733333333333322	-2.034210498573589	-1.440453390630075	31.0146309676562	0	0.9399999999999999	0	24.0872599269494	-8.436484648308374	-7.325249010228308	27.82610719049671	0.4856571884870366	0	0	0	24.0872599269494	-8.436484648308374	-7.325249010228308	27.82610719049671	0.4856571884870366	0	0	0	-1.897950652430686	0.2081216221723116	10.3008092949016	18.24415021640139	-9.461142163275275	-2.155900305178236	4.025432059535304	135.4623399578963	0	0	74.03509149220588	-48.44701238769664	30.05983939739554	60.28959146624948	43.05380244835602	0	0
